<svg width="12" height="9" viewBox="0 0 12 9" fill="none" xmlns="http://www.w3.org/2000/svg">
<path d="M11.9013 4.22673L8.43638 0.135818C8.36247 0.0490909 8.25929 0 8.14995 0H5.84001C5.68833 0 5.5505 0.0949091 5.48813 0.242182C5.42653 0.390273 5.45194 0.562909 5.55358 0.682364L8.78673 4.5L5.55358 8.31682C5.45194 8.43709 5.42576 8.60973 5.48813 8.757C5.5505 8.90509 5.68833 9 5.84001 9H8.14995C8.25929 9 8.36247 8.95009 8.43638 8.865L11.9013 4.77409C12.033 4.61864 12.033 4.38136 11.9013 4.22673Z" fill="black"/>
<path d="M6.4467 4.22673L2.9818 0.135818C2.90788 0.0490909 2.8047 0 2.69536 0H0.385423C0.233737 0 0.0959104 0.0949091 0.0335421 0.242182C-0.0280563 0.390273 -0.00264698 0.562909 0.0989904 0.682364L3.33214 4.5L0.0989904 8.31682C-0.00264698 8.43709 -0.0288263 8.60973 0.0335421 8.757C0.0959104 8.90509 0.233737 9 0.385423 9H2.69536C2.8047 9 2.90788 8.95009 2.9818 8.865L6.4467 4.77409C6.57837 4.61864 6.57837 4.38136 6.4467 4.22673Z" fill="black"/>
</svg>
